<svg width="40" height="40" viewBox="0 0 40 40" fill="none" xmlns="http://www.w3.org/2000/svg">
<path opacity="0.5" fill-rule="evenodd" clip-rule="evenodd" d="M8.33334 8.33334H31.6667V31.6667H8.33334V8.33334ZM15 21.9L10 28.3333H30L23.5667 19.75L18.5667 26.2L15 21.9Z" fill="#1E3E0A"/>
<path fill-rule="evenodd" clip-rule="evenodd" d="M31.6667 35H8.33333C6.5 35 5 33.5 5 31.6667V8.33333C5 6.5 6.5 5 8.33333 5H31.6667C33.5 5 35 6.5 35 8.33333V31.6667C35 33.5 33.5 35 31.6667 35ZM31.6667 8.33333H8.33333V31.6667H31.6667V8.33333Z" fill="#1E3E0A"/>
<path d="M18.5667 26.2L15 21.9L10 28.3333H30L23.5667 19.7667L18.5667 26.2Z" fill="#1E3E0A"/>
</svg>
