<svg width="40" height="40" viewBox="0 0 40 40" fill="none" xmlns="http://www.w3.org/2000/svg">
<path opacity="0.5" fill-rule="evenodd" clip-rule="evenodd" d="M30 10V15.8667L34.1333 20L30 24.1333V30H24.1333L20 34.1333L15.8667 30H10V24.1333L5.86667 20L10 15.8667V10H15.8667L20 5.86667L24.1333 10H30ZM20 10.8333V29.1667C25.05 29.1667 29.1667 25.05 29.1667 20C29.1667 14.95 25.05 10.8333 20 10.8333Z" fill="#1E3E0A"/>
<path fill-rule="evenodd" clip-rule="evenodd" d="M33.3333 6.66666V14.4833L38.85 20L33.3333 25.5167V33.3333H25.5167L20 38.85L14.4833 33.3333H6.66666V25.5167L1.14999 20L6.66666 14.4833V6.66666H14.4833L20 1.14999L25.5167 6.66666H33.3333ZM30 30V24.1333L34.1333 20L30 15.8667V9.99999H24.1333L20 5.86666L15.8667 9.99999H9.99999V15.8667L5.86666 20L9.99999 24.1333V30H15.8667L20 34.1333L24.1333 30H30Z" fill="#1E3E0A"/>
<path d="M20 10.8333V29.1667C25.05 29.1667 29.1667 25.05 29.1667 20C29.1667 14.95 25.05 10.8333 20 10.8333Z" fill="#1E3E0A"/>
</svg>
