<svg width="40" height="40" viewBox="0 0 40 40" fill="none" xmlns="http://www.w3.org/2000/svg">
<g clip-path="url(#clip0_40_28)">
<path opacity="0.3" d="M32.1333 14.3333L30.9667 12.3167L28.85 13.1667L27.0833 13.8833L25.5667 12.7167C24.9167 12.2167 24.2333 11.8167 23.5167 11.5333L21.75 10.8167L21.4833 8.93332L21.1667 6.66666H18.8333L18.5167 8.91666L18.25 10.8L16.4833 11.5333C15.8 11.8167 15.1167 12.2167 14.4 12.75L12.9 13.8833L11.15 13.1833L9.03334 12.3167L7.86667 14.3333L9.66667 15.7333L11.15 16.9L10.9167 18.7833C10.8667 19.2833 10.8333 19.6667 10.8333 20C10.8333 20.3333 10.8667 20.7167 10.9167 21.2167L11.15 23.1L9.66667 24.2667L7.86667 25.6667L9.03334 27.6833L11.15 26.8333L12.9167 26.1167L14.4333 27.2833C15.0833 27.7833 15.7667 28.1833 16.4833 28.4667L18.25 29.1833L18.5167 31.0667L18.8333 33.3333H21.15L21.4667 31.0833L21.7333 29.2L23.5 28.4833C24.1833 28.2 24.8667 27.8 25.5833 27.2667L27.0833 26.1333L28.8167 26.8333L30.9333 27.6833L32.1 25.6667L30.3 24.2667L28.8167 23.1L29.05 21.2167C29.1167 20.7 29.1333 20.35 29.1333 20C29.1333 19.65 29.1 19.2833 29.05 18.7833L28.8167 16.9L30.3 15.7333L32.1333 14.3333V14.3333ZM20 26.6667C16.3167 26.6667 13.3333 23.6833 13.3333 20C13.3333 16.3167 16.3167 13.3333 20 13.3333C23.6833 13.3333 26.6667 16.3167 26.6667 20C26.6667 23.6833 23.6833 26.6667 20 26.6667Z" fill="#1E3E0A"/>
<path d="M32.3833 21.6333C32.45 21.1 32.5 20.5667 32.5 20C32.5 19.4333 32.45 18.9 32.3833 18.3667L35.9 15.6167C36.2167 15.3667 36.3 14.9167 36.1 14.55L32.7667 8.78334C32.6167 8.51668 32.3333 8.36668 32.0333 8.36668C31.9333 8.36668 31.8333 8.38334 31.75 8.41668L27.6 10.0833C26.7333 9.41668 25.8 8.86668 24.7833 8.45001L24.15 4.03334C24.1 3.63334 23.75 3.33334 23.3333 3.33334H16.6667C16.25 3.33334 15.9 3.63334 15.85 4.03334L15.2167 8.45001C14.2 8.86668 13.2667 9.43334 12.4 10.0833L8.25001 8.41668C8.15001 8.38334 8.05001 8.36668 7.95001 8.36668C7.66667 8.36668 7.38334 8.51668 7.23334 8.78334L3.90001 14.55C3.68334 14.9167 3.78334 15.3667 4.10001 15.6167L7.61667 18.3667C7.55001 18.9 7.50001 19.45 7.50001 20C7.50001 20.55 7.55001 21.1 7.61667 21.6333L4.10001 24.3833C3.78334 24.6333 3.70001 25.0833 3.90001 25.45L7.23334 31.2167C7.38334 31.4833 7.66667 31.6333 7.96667 31.6333C8.06667 31.6333 8.16667 31.6167 8.25001 31.5833L12.4 29.9167C13.2667 30.5833 14.2 31.1333 15.2167 31.55L15.85 35.9667C15.9 36.3667 16.25 36.6667 16.6667 36.6667H23.3333C23.75 36.6667 24.1 36.3667 24.15 35.9667L24.7833 31.55C25.8 31.1333 26.7333 30.5667 27.6 29.9167L31.75 31.5833C31.85 31.6167 31.95 31.6333 32.05 31.6333C32.3333 31.6333 32.6167 31.4833 32.7667 31.2167L36.1 25.45C36.3 25.0833 36.2167 24.6333 35.9 24.3833L32.3833 21.6333V21.6333ZM29.0833 18.7833C29.15 19.3 29.1667 19.65 29.1667 20C29.1667 20.35 29.1333 20.7167 29.0833 21.2167L28.85 23.1L30.3333 24.2667L32.1333 25.6667L30.9667 27.6833L28.85 26.8333L27.1167 26.1333L25.6167 27.2667C24.9 27.8 24.2167 28.2 23.5333 28.4833L21.7667 29.2L21.5 31.0833L21.1667 33.3333H18.8333L18.5167 31.0833L18.25 29.2L16.4833 28.4833C15.7667 28.1833 15.1 27.8 14.4333 27.3L12.9167 26.1333L11.15 26.85L9.03334 27.7L7.86667 25.6833L9.66667 24.2833L11.15 23.1167L10.9167 21.2333C10.8667 20.7167 10.8333 20.3333 10.8333 20C10.8333 19.6667 10.8667 19.2833 10.9167 18.7833L11.15 16.9L9.66667 15.7333L7.86667 14.3333L9.03334 12.3167L11.15 13.1667L12.8833 13.8667L14.3833 12.7333C15.1 12.2 15.7833 11.8 16.4667 11.5167L18.2333 10.8L18.5 8.91668L18.8333 6.66668H21.15L21.4667 8.91668L21.7333 10.8L23.5 11.5167C24.2167 11.8167 24.8833 12.2 25.55 12.7L27.0667 13.8667L28.8333 13.15L30.95 12.3L32.1167 14.3167L30.3333 15.7333L28.85 16.9L29.0833 18.7833ZM20 13.3333C16.3167 13.3333 13.3333 16.3167 13.3333 20C13.3333 23.6833 16.3167 26.6667 20 26.6667C23.6833 26.6667 26.6667 23.6833 26.6667 20C26.6667 16.3167 23.6833 13.3333 20 13.3333ZM20 23.3333C18.1667 23.3333 16.6667 21.8333 16.6667 20C16.6667 18.1667 18.1667 16.6667 20 16.6667C21.8333 16.6667 23.3333 18.1667 23.3333 20C23.3333 21.8333 21.8333 23.3333 20 23.3333Z" fill="#1E3E0A"/>
</g>
<defs>
<clipPath id="clip0_40_28">
<rect width="40" height="40" fill="white"/>
</clipPath>
</defs>
</svg>
