<svg width="40" height="40" viewBox="0 0 40 40" fill="none" xmlns="http://www.w3.org/2000/svg">
<path opacity="0.5" d="M8.33334 21.6667H13.05L16.6667 25.2833V14.7167L13.05 18.3333H8.33334V21.6667Z" fill="#1E3E0A"/>
<path fill-rule="evenodd" clip-rule="evenodd" d="M5 25V15H11.6667L20 6.66666V33.3333L11.6667 25H5ZM16.6667 25.2833V14.7167L13.05 18.3333H8.33333V21.6667H13.05L16.6667 25.2833Z" fill="#1E3E0A"/>
<path d="M23.3333 13.2833V26.7C25.8 25.4833 27.5 22.95 27.5 20C27.5 17.05 25.8 14.5167 23.3333 13.2833Z" fill="#1E3E0A"/>
<path d="M23.3333 5.38333V8.81666C28.15 10.25 31.6667 14.7167 31.6667 20C31.6667 25.2833 28.15 29.75 23.3333 31.1833V34.6167C30.0167 33.1 35 27.1333 35 20C35 12.8667 30.0167 6.9 23.3333 5.38333Z" fill="#1E3E0A"/>
</svg>
